<svg width="25" height="24" viewBox="0 0 25 24" fill="none" xmlns="http://www.w3.org/2000/svg">
<path d="M16.5 15.75V18M9 11.25H9.0075V11.2575H9V11.25ZM9 13.5H9.0075V13.5075H9V13.5ZM9 15.75H9.0075V15.7575H9V15.75ZM9 18H9.0075V18.0075H9V18ZM11.4976 11.25H11.5051V11.2575H11.4976V11.25ZM11.4976 13.5H11.5051V13.5075H11.4976V13.5ZM11.4976 15.75H11.5051V15.7575H11.4976V15.75ZM11.4976 18H11.5051V18.0075H11.4976V18ZM14.0024 11.25H14.0099V11.2575H14.0024V11.25ZM14.0024 13.5H14.0099V13.5075H14.0024V13.5ZM14.0024 15.75H14.0099V15.7575H14.0024V15.75ZM14.0024 18H14.0099V18.0075H14.0024V18ZM16.5 11.25H16.5075V11.2575H16.5V11.25ZM16.5 13.5H16.5075V13.5075H16.5V13.5ZM9 6H16.5V8.25H9V6ZM12.75 2.25C10.858 2.25 8.99156 2.35947 7.15668 2.57241C6.05608 2.70014 5.25 3.649 5.25 4.75699V19.5C5.25 20.7426 6.25736 21.75 7.5 21.75H18C19.2426 21.75 20.25 20.7426 20.25 19.5V4.75699C20.25 3.649 19.4439 2.70014 18.3433 2.57241C16.5084 2.35947 14.642 2.25 12.75 2.25Z" stroke="#ACACAC" stroke-width="1.5" stroke-linecap="round" stroke-linejoin="round"/>
</svg>
