<svg width="25" height="24" viewBox="0 0 25 24" fill="none" xmlns="http://www.w3.org/2000/svg">
<path d="M9.99997 3.10408V8.81802C9.99997 9.41476 9.76292 9.98705 9.34097 10.409L5.24998 14.5M9.99997 3.10408C9.74883 3.12743 9.49881 3.15465 9.24997 3.18568M9.99997 3.10408C10.7407 3.03521 11.4912 3 12.25 3C13.0087 3 13.7592 3.03521 14.5 3.10408M14.5 3.10408V8.81802C14.5 9.41476 14.737 9.98705 15.159 10.409L20.05 15.3M14.5 3.10408C14.7511 3.12743 15.0011 3.15465 15.25 3.18568M20.05 15.3L18.4799 15.6925C16.3956 16.2136 14.1716 15.9608 12.25 15C10.3284 14.0392 8.10432 13.7864 6.02007 14.3075L5.24998 14.5M20.05 15.3L21.4522 16.7022C22.6841 17.9341 22.1027 20.0202 20.3854 20.3134C17.7411 20.7649 15.023 21 12.25 21C9.47696 21 6.75888 20.7649 4.11456 20.3134C2.39725 20.0202 1.81588 17.9341 3.04777 16.7022L5.24998 14.5" stroke="#ACACAC" stroke-width="1.5" stroke-linecap="round" stroke-linejoin="round"/>
</svg>
